<svg width="56" height="56" viewBox="0 0 56 56" fill="none" xmlns="http://www.w3.org/2000/svg">
<g clip-path="url(#clip0_137_9491)">
<rect x="-28" y="14" width="34" height="28" rx="4" fill="#6A54FF"/>
<rect x="50" y="14" width="34" height="28" rx="4" fill="#6A54FF"/>
<rect x="8" y="12" width="40" height="32" rx="4" fill="#57E1FF"/>
<path d="M24.8474 34.6843L34.2369 29.3307C34.9431 28.9154 35.2963 28.7078 35.4287 28.4447C35.5703 28.1634 35.5711 27.8319 35.431 27.5499C35.2999 27.2862 34.9455 27.0754 34.2369 26.6539L34.2369 26.6539L24.8474 21.3003L24.8082 21.2786C24.0863 20.8787 23.7254 20.6788 23.4298 20.6996C23.1168 20.7216 22.8323 20.8892 22.6614 21.1523C22.5 21.4008 22.5 21.8134 22.5 22.6387L22.5 22.6387L22.5 33.3459C22.5 34.1755 22.5 34.5902 22.6622 34.8392C22.8339 35.1026 23.1195 35.2699 23.4333 35.2909C23.7298 35.3107 24.0916 35.1079 24.8152 34.7023L24.8474 34.6843Z" fill="black"/>
</g>
<defs>
<clipPath id="clip0_137_9491">
<rect width="56" height="56" fill="white"/>
</clipPath>
</defs>
</svg>
