<svg width="132" height="64" viewBox="0 0 132 64" fill="none" xmlns="http://www.w3.org/2000/svg">
<g clip-path="url(#clip0_554_141)">
<path d="M62.0865 31.0657H55.6033L52.22 46.626H59.2035C64.2282 46.626 65.7197 43.8597 65.7373 41.6769C65.7527 39.7751 64.6731 38.9971 63.6539 38.6621L63.6872 38.4892C65.1162 38.1759 66.8503 37.0088 66.8697 34.61C66.8883 32.2975 65.0992 31.0657 62.0865 31.0657ZM56.8233 43.4491L57.5083 40.3586H60.2655C61.3194 40.3586 61.944 40.7909 61.9368 41.6877C61.9292 42.617 61.2199 43.4491 59.7295 43.4491H56.8233ZM58.194 37.1817L58.8352 34.2426H61.3795C62.4334 34.2426 63.0157 34.6424 63.0088 35.496C63.0016 36.3821 62.3351 37.1817 60.8128 37.1817H58.194Z" fill="white"/>
<path d="M68.8924 31.0657L65.509 46.626H76.6574L77.3979 43.2546H70.2949L72.9377 31.0657H68.8924Z" fill="white"/>
<path d="M84.5235 31.0657L76.8952 46.3018L76.8287 46.626H80.6718L82.167 43.3842H86.7127L86.8036 46.626H90.487L90.5535 46.3018L89.5482 31.0657H84.5235ZM83.6838 40.1209L86.3059 34.4479H86.4762L86.622 40.1209H83.6838Z" fill="white"/>
<path d="M98.2064 31.0657H93.8311L90.4478 46.626H95.8345C102.616 46.626 104.839 41.5689 104.874 37.2466C104.906 33.2376 102.273 31.0657 98.2064 31.0657ZM95.1477 43.341L97.0834 34.3506H98.0521C99.9258 34.3506 100.993 35.388 100.977 37.3654C100.953 40.2506 99.5018 43.341 96.3933 43.341H95.1477Z" fill="white"/>
<path d="M107.12 31.0657L103.737 46.626H115.341L116.026 43.4491H108.383L109.057 40.3802H115.487L116.173 37.2034H109.753L110.395 34.2426H117.889L118.575 31.0657H107.12Z" fill="white"/>
<path d="M68.3256 13.0552L67.6067 16.3834H72.014L69.3495 28.6155H73.3523L76.0167 16.3834H80.424L81.1429 13.0552H68.3256Z" fill="white"/>
<path d="M87.9275 13.0552H81.6359L78.2526 28.6155H82.1702L83.4971 22.4994H83.71L86.8649 28.6155H90.8357L90.9022 28.2913L87.7232 22.521C91.6009 22.1969 93.0348 19.9601 93.0567 17.2478C93.0784 14.568 91.0999 13.0552 87.9275 13.0552ZM84.1163 19.6467L84.8678 16.2321H87.3695C88.5831 16.2321 89.2712 16.7183 89.2635 17.6692C89.2555 18.6634 88.5449 19.6467 86.7777 19.6467H84.1163Z" fill="white"/>
<path d="M97.778 13.0552L90.1497 28.2913L90.0832 28.6155H93.9263L95.4216 25.3737H99.9673L100.058 28.6155H103.742L103.808 28.2913L102.803 13.0552H97.778ZM96.9384 22.1104L99.5604 16.4374H99.7308L99.8766 22.1104H96.9384Z" fill="white"/>
<path d="M111.461 13.0552H107.086L103.702 28.6155H109.089C115.87 28.6155 118.093 23.5584 118.128 19.2361C118.161 15.2271 115.528 13.0552 111.461 13.0552ZM108.402 25.3305L110.338 16.3401H111.307C113.18 16.3401 114.247 17.3775 114.231 19.3549C114.208 22.2401 112.756 25.3305 109.648 25.3305H108.402Z" fill="white"/>
<path d="M120.375 13.0552L116.991 28.6155H128.595L129.281 25.4386H121.637L122.311 22.3697H128.741L129.427 19.1928H123.008L123.649 16.2321H131.144L131.829 13.0552H120.375Z" fill="white"/>
<path d="M25.3386 46.6677L-2.90388e-05 2.92478L12.586 13.025L28.6741 40.8904L25.3386 46.6677Z" fill="#5E47FF"/>
<path d="M49.1241 20.1848L23.9109 64.0002L26.3648 48.0502L42.4529 20.1848L49.1241 20.1848Z" fill="#5E47FF"/>
<path d="M14.4431 13.104L64.9949 13.0316L49.9549 18.8813L17.7787 18.8813L14.4431 13.104Z" fill="#5E47FF"/>
<path d="M25.3386 46.6677L-2.90388e-05 2.92478L12.586 13.025L28.6741 40.8904L25.3386 46.6677Z" fill="#5E47FF"/>
<path d="M49.1241 20.1848L23.9109 64.0002L26.3648 48.0502L42.4529 20.1848L49.1241 20.1848Z" fill="#5E47FF"/>
<g filter="url(#filter0_f_554_141)">
<path d="M14.4431 13.104L64.9949 13.0316L49.9549 18.8813L17.7787 18.8813L14.4431 13.104Z" fill="#5E47FF"/>
</g>
<path d="M29.5829 37.5891L39.1131 21.0823H20.0527L29.5829 37.5891Z" fill="#57E1FF"/>
<g filter="url(#filter1_f_554_141)">
<path d="M25.3386 46.6677L-2.90388e-05 2.92478L12.586 13.025L28.6741 40.8904L25.3386 46.6677Z" fill="#5E47FF"/>
</g>
<g filter="url(#filter2_f_554_141)">
<path d="M49.1241 20.1848L23.9109 64.0002L26.3648 48.0502L42.4529 20.1848L49.1241 20.1848Z" fill="#5E47FF"/>
</g>
<path d="M14.4431 13.104L64.9949 13.0316L49.9549 18.8813L17.7787 18.8813L14.4431 13.104Z" fill="#5E47FF"/>
</g>
<defs>
<filter id="filter0_f_554_141" x="-5.55688" y="-6.96851" width="90.5518" height="45.8499" filterUnits="userSpaceOnUse" color-interpolation-filters="sRGB">
<feFlood flood-opacity="0" result="BackgroundImageFix"/>
<feBlend mode="normal" in="SourceGraphic" in2="BackgroundImageFix" result="shape"/>
<feGaussianBlur stdDeviation="10" result="effect1_foregroundBlur_554_141"/>
</filter>
<filter id="filter1_f_554_141" x="-20" y="-17.0752" width="68.6742" height="83.7429" filterUnits="userSpaceOnUse" color-interpolation-filters="sRGB">
<feFlood flood-opacity="0" result="BackgroundImageFix"/>
<feBlend mode="normal" in="SourceGraphic" in2="BackgroundImageFix" result="shape"/>
<feGaussianBlur stdDeviation="10" result="effect1_foregroundBlur_554_141"/>
</filter>
<filter id="filter2_f_554_141" x="3.91089" y="0.184814" width="65.2131" height="83.8154" filterUnits="userSpaceOnUse" color-interpolation-filters="sRGB">
<feFlood flood-opacity="0" result="BackgroundImageFix"/>
<feBlend mode="normal" in="SourceGraphic" in2="BackgroundImageFix" result="shape"/>
<feGaussianBlur stdDeviation="10" result="effect1_foregroundBlur_554_141"/>
</filter>
<clipPath id="clip0_554_141">
<rect width="131.829" height="64" fill="white"/>
</clipPath>
</defs>
</svg>
